<mxfile host="app.diagrams.net" modified="2022-12-08T13:53:06.107Z" agent="5.0 (Windows NT 10.0; Win64; x64) AppleWebKit/537.36 (KHTML, like Gecko) Chrome/107.0.0.0 Safari/537.36" etag="BBWG6YMH16D1yuVfKa05" version="15.3.1" type="github">
  <diagram id="RaUIB1Iz39og9bqEEk9t" name="第 1 页">
    <mxGraphModel dx="1422" dy="762" grid="1" gridSize="10" guides="1" tooltips="1" connect="1" arrows="1" fold="1" page="1" pageScale="1" pageWidth="1600" pageHeight="900" math="0" shadow="0">
      <root>
        <mxCell id="0" />
        <mxCell id="1" parent="0" />
        <mxCell id="5Z1uy8fRGyx_QVM0Wn5j-250" style="edgeStyle=orthogonalEdgeStyle;rounded=0;orthogonalLoop=1;jettySize=auto;html=1;exitX=1;exitY=0.5;exitDx=0;exitDy=0;" edge="1" parent="1" source="5Z1uy8fRGyx_QVM0Wn5j-106">
          <mxGeometry relative="1" as="geometry">
            <mxPoint x="1360" y="385" as="targetPoint" />
          </mxGeometry>
        </mxCell>
        <mxCell id="5Z1uy8fRGyx_QVM0Wn5j-1" value="x1" style="rounded=1;whiteSpace=wrap;html=1;shadow=0;glass=0;sketch=0;fontFamily=Times New Roman;fontSize=16;strokeWidth=2;fillColor=#f8cecc;strokeColor=#b85450;fontStyle=1" vertex="1" parent="1">
          <mxGeometry x="960" y="225" width="30" height="30" as="geometry" />
        </mxCell>
        <mxCell id="5Z1uy8fRGyx_QVM0Wn5j-2" value="x1" style="rounded=1;whiteSpace=wrap;html=1;shadow=0;glass=0;sketch=0;fontFamily=Times New Roman;fontSize=16;strokeWidth=2;fillColor=#f8cecc;strokeColor=#b85450;fontStyle=1" vertex="1" parent="1">
          <mxGeometry x="1000" y="225" width="30" height="30" as="geometry" />
        </mxCell>
        <mxCell id="5Z1uy8fRGyx_QVM0Wn5j-3" value="x1" style="rounded=1;whiteSpace=wrap;html=1;shadow=0;glass=0;sketch=0;fontFamily=Times New Roman;fontSize=16;strokeWidth=2;fillColor=#f8cecc;strokeColor=#b85450;fontStyle=1" vertex="1" parent="1">
          <mxGeometry x="1040" y="225" width="30" height="30" as="geometry" />
        </mxCell>
        <mxCell id="5Z1uy8fRGyx_QVM0Wn5j-4" value="x1" style="rounded=1;whiteSpace=wrap;html=1;shadow=0;glass=0;sketch=0;fontFamily=Times New Roman;fontSize=16;strokeWidth=2;fillColor=#f8cecc;strokeColor=#b85450;fontStyle=1" vertex="1" parent="1">
          <mxGeometry x="1080" y="225" width="30" height="30" as="geometry" />
        </mxCell>
        <mxCell id="5Z1uy8fRGyx_QVM0Wn5j-5" value="-" style="rounded=1;whiteSpace=wrap;html=1;shadow=0;glass=0;sketch=0;fontFamily=Times New Roman;fontSize=16;strokeWidth=2;fillColor=#f8cecc;strokeColor=#b85450;fontStyle=1" vertex="1" parent="1">
          <mxGeometry x="1120" y="225" width="30" height="30" as="geometry" />
        </mxCell>
        <mxCell id="5Z1uy8fRGyx_QVM0Wn5j-6" value="-" style="rounded=1;whiteSpace=wrap;html=1;shadow=0;glass=0;sketch=0;fontFamily=Times New Roman;fontSize=16;strokeWidth=2;fillColor=#f8cecc;strokeColor=#b85450;fontStyle=1" vertex="1" parent="1">
          <mxGeometry x="1160" y="225" width="30" height="30" as="geometry" />
        </mxCell>
        <mxCell id="5Z1uy8fRGyx_QVM0Wn5j-7" value="-" style="rounded=1;whiteSpace=wrap;html=1;shadow=0;glass=0;sketch=0;fontFamily=Times New Roman;fontSize=16;strokeWidth=2;fillColor=#d5e8d4;strokeColor=#82b366;fontStyle=1" vertex="1" parent="1">
          <mxGeometry x="1200" y="225" width="30" height="30" as="geometry" />
        </mxCell>
        <mxCell id="5Z1uy8fRGyx_QVM0Wn5j-8" value="-" style="rounded=1;whiteSpace=wrap;html=1;shadow=0;glass=0;sketch=0;fontFamily=Times New Roman;fontSize=16;strokeWidth=2;fillColor=#d5e8d4;strokeColor=#82b366;fontStyle=1" vertex="1" parent="1">
          <mxGeometry x="1240" y="225" width="30" height="30" as="geometry" />
        </mxCell>
        <mxCell id="5Z1uy8fRGyx_QVM0Wn5j-9" value="-" style="rounded=1;whiteSpace=wrap;html=1;shadow=0;glass=0;sketch=0;fontFamily=Times New Roman;fontSize=16;strokeWidth=2;fillColor=#f8cecc;strokeColor=#b85450;fontStyle=1" vertex="1" parent="1">
          <mxGeometry x="960" y="225" width="30" height="30" as="geometry" />
        </mxCell>
        <mxCell id="5Z1uy8fRGyx_QVM0Wn5j-10" value="-" style="rounded=1;whiteSpace=wrap;html=1;shadow=0;glass=0;sketch=0;fontFamily=Times New Roman;fontSize=16;strokeWidth=2;fillColor=#f8cecc;strokeColor=#b85450;fontStyle=1" vertex="1" parent="1">
          <mxGeometry x="1000" y="225" width="30" height="30" as="geometry" />
        </mxCell>
        <mxCell id="5Z1uy8fRGyx_QVM0Wn5j-11" value="-" style="rounded=1;whiteSpace=wrap;html=1;shadow=0;glass=0;sketch=0;fontFamily=Times New Roman;fontSize=16;strokeWidth=2;fillColor=#f8cecc;strokeColor=#b85450;fontStyle=1" vertex="1" parent="1">
          <mxGeometry x="1040" y="225" width="30" height="30" as="geometry" />
        </mxCell>
        <mxCell id="5Z1uy8fRGyx_QVM0Wn5j-12" value="-" style="rounded=1;whiteSpace=wrap;html=1;shadow=0;glass=0;sketch=0;fontFamily=Times New Roman;fontSize=16;strokeWidth=2;fillColor=#f8cecc;strokeColor=#b85450;fontStyle=1" vertex="1" parent="1">
          <mxGeometry x="1080" y="225" width="30" height="30" as="geometry" />
        </mxCell>
        <mxCell id="5Z1uy8fRGyx_QVM0Wn5j-13" value="-" style="rounded=1;whiteSpace=wrap;html=1;shadow=0;glass=0;sketch=0;fontFamily=Times New Roman;fontSize=16;strokeWidth=2;fillColor=#d5e8d4;strokeColor=#82b366;fontStyle=1" vertex="1" parent="1">
          <mxGeometry x="1280" y="225" width="30" height="30" as="geometry" />
        </mxCell>
        <mxCell id="5Z1uy8fRGyx_QVM0Wn5j-33" value="x1" style="rounded=1;whiteSpace=wrap;html=1;shadow=0;glass=0;sketch=0;fontFamily=Times New Roman;fontSize=16;strokeWidth=2;fillColor=#f8cecc;strokeColor=#b85450;fontStyle=1" vertex="1" parent="1">
          <mxGeometry x="960" y="265" width="30" height="30" as="geometry" />
        </mxCell>
        <mxCell id="5Z1uy8fRGyx_QVM0Wn5j-34" value="x1" style="rounded=1;whiteSpace=wrap;html=1;shadow=0;glass=0;sketch=0;fontFamily=Times New Roman;fontSize=16;strokeWidth=2;fillColor=#f8cecc;strokeColor=#b85450;fontStyle=1" vertex="1" parent="1">
          <mxGeometry x="1000" y="265" width="30" height="30" as="geometry" />
        </mxCell>
        <mxCell id="5Z1uy8fRGyx_QVM0Wn5j-35" value="x1" style="rounded=1;whiteSpace=wrap;html=1;shadow=0;glass=0;sketch=0;fontFamily=Times New Roman;fontSize=16;strokeWidth=2;fillColor=#f8cecc;strokeColor=#b85450;fontStyle=1" vertex="1" parent="1">
          <mxGeometry x="1040" y="265" width="30" height="30" as="geometry" />
        </mxCell>
        <mxCell id="5Z1uy8fRGyx_QVM0Wn5j-36" value="x1" style="rounded=1;whiteSpace=wrap;html=1;shadow=0;glass=0;sketch=0;fontFamily=Times New Roman;fontSize=16;strokeWidth=2;fillColor=#f8cecc;strokeColor=#b85450;fontStyle=1" vertex="1" parent="1">
          <mxGeometry x="1080" y="265" width="30" height="30" as="geometry" />
        </mxCell>
        <mxCell id="5Z1uy8fRGyx_QVM0Wn5j-37" value="-" style="rounded=1;whiteSpace=wrap;html=1;shadow=0;glass=0;sketch=0;fontFamily=Times New Roman;fontSize=16;strokeWidth=2;fillColor=#f8cecc;strokeColor=#b85450;fontStyle=1" vertex="1" parent="1">
          <mxGeometry x="1120" y="265" width="30" height="30" as="geometry" />
        </mxCell>
        <mxCell id="5Z1uy8fRGyx_QVM0Wn5j-251" style="edgeStyle=orthogonalEdgeStyle;rounded=0;orthogonalLoop=1;jettySize=auto;html=1;exitX=1;exitY=0.5;exitDx=0;exitDy=0;" edge="1" parent="1" source="5Z1uy8fRGyx_QVM0Wn5j-38">
          <mxGeometry relative="1" as="geometry">
            <mxPoint x="1360" y="355" as="targetPoint" />
          </mxGeometry>
        </mxCell>
        <mxCell id="5Z1uy8fRGyx_QVM0Wn5j-38" value="1" style="rounded=1;whiteSpace=wrap;html=1;shadow=0;glass=0;sketch=0;fontFamily=Times New Roman;fontSize=16;strokeWidth=2;fillColor=#f8cecc;strokeColor=#b85450;fontStyle=1" vertex="1" parent="1">
          <mxGeometry x="1160" y="265" width="30" height="30" as="geometry" />
        </mxCell>
        <mxCell id="5Z1uy8fRGyx_QVM0Wn5j-39" value="1" style="rounded=1;whiteSpace=wrap;html=1;shadow=0;glass=0;sketch=0;fontFamily=Times New Roman;fontSize=16;strokeWidth=2;fillColor=#d5e8d4;strokeColor=#82b366;fontStyle=1" vertex="1" parent="1">
          <mxGeometry x="1200" y="265" width="30" height="30" as="geometry" />
        </mxCell>
        <mxCell id="5Z1uy8fRGyx_QVM0Wn5j-40" value="-" style="rounded=1;whiteSpace=wrap;html=1;shadow=0;glass=0;sketch=0;fontFamily=Times New Roman;fontSize=16;strokeWidth=2;fillColor=#d5e8d4;strokeColor=#82b366;fontStyle=1" vertex="1" parent="1">
          <mxGeometry x="1240" y="265" width="30" height="30" as="geometry" />
        </mxCell>
        <mxCell id="5Z1uy8fRGyx_QVM0Wn5j-41" value="-" style="rounded=1;whiteSpace=wrap;html=1;shadow=0;glass=0;sketch=0;fontFamily=Times New Roman;fontSize=16;strokeWidth=2;fillColor=#f8cecc;strokeColor=#b85450;fontStyle=1" vertex="1" parent="1">
          <mxGeometry x="960" y="265" width="30" height="30" as="geometry" />
        </mxCell>
        <mxCell id="5Z1uy8fRGyx_QVM0Wn5j-42" value="-" style="rounded=1;whiteSpace=wrap;html=1;shadow=0;glass=0;sketch=0;fontFamily=Times New Roman;fontSize=16;strokeWidth=2;fillColor=#f8cecc;strokeColor=#b85450;fontStyle=1" vertex="1" parent="1">
          <mxGeometry x="1000" y="265" width="30" height="30" as="geometry" />
        </mxCell>
        <mxCell id="5Z1uy8fRGyx_QVM0Wn5j-43" value="-" style="rounded=1;whiteSpace=wrap;html=1;shadow=0;glass=0;sketch=0;fontFamily=Times New Roman;fontSize=16;strokeWidth=2;fillColor=#f8cecc;strokeColor=#b85450;fontStyle=1" vertex="1" parent="1">
          <mxGeometry x="1040" y="265" width="30" height="30" as="geometry" />
        </mxCell>
        <mxCell id="5Z1uy8fRGyx_QVM0Wn5j-44" value="-" style="rounded=1;whiteSpace=wrap;html=1;shadow=0;glass=0;sketch=0;fontFamily=Times New Roman;fontSize=16;strokeWidth=2;fillColor=#f8cecc;strokeColor=#b85450;fontStyle=1" vertex="1" parent="1">
          <mxGeometry x="1080" y="265" width="30" height="30" as="geometry" />
        </mxCell>
        <mxCell id="5Z1uy8fRGyx_QVM0Wn5j-45" value="-" style="rounded=1;whiteSpace=wrap;html=1;shadow=0;glass=0;sketch=0;fontFamily=Times New Roman;fontSize=16;strokeWidth=2;fillColor=#d5e8d4;strokeColor=#82b366;fontStyle=1" vertex="1" parent="1">
          <mxGeometry x="1280" y="265" width="30" height="30" as="geometry" />
        </mxCell>
        <mxCell id="5Z1uy8fRGyx_QVM0Wn5j-49" value="x1" style="rounded=1;whiteSpace=wrap;html=1;shadow=0;glass=0;sketch=0;fontFamily=Times New Roman;fontSize=16;strokeWidth=2;fillColor=#f8cecc;strokeColor=#b85450;fontStyle=1" vertex="1" parent="1">
          <mxGeometry x="960" y="305" width="30" height="30" as="geometry" />
        </mxCell>
        <mxCell id="5Z1uy8fRGyx_QVM0Wn5j-50" value="x1" style="rounded=1;whiteSpace=wrap;html=1;shadow=0;glass=0;sketch=0;fontFamily=Times New Roman;fontSize=16;strokeWidth=2;fillColor=#f8cecc;strokeColor=#b85450;fontStyle=1" vertex="1" parent="1">
          <mxGeometry x="1000" y="305" width="30" height="30" as="geometry" />
        </mxCell>
        <mxCell id="5Z1uy8fRGyx_QVM0Wn5j-51" value="x1" style="rounded=1;whiteSpace=wrap;html=1;shadow=0;glass=0;sketch=0;fontFamily=Times New Roman;fontSize=16;strokeWidth=2;fillColor=#f8cecc;strokeColor=#b85450;fontStyle=1" vertex="1" parent="1">
          <mxGeometry x="1040" y="305" width="30" height="30" as="geometry" />
        </mxCell>
        <mxCell id="5Z1uy8fRGyx_QVM0Wn5j-52" value="x1" style="rounded=1;whiteSpace=wrap;html=1;shadow=0;glass=0;sketch=0;fontFamily=Times New Roman;fontSize=16;strokeWidth=2;fillColor=#f8cecc;strokeColor=#b85450;fontStyle=1" vertex="1" parent="1">
          <mxGeometry x="1080" y="305" width="30" height="30" as="geometry" />
        </mxCell>
        <mxCell id="5Z1uy8fRGyx_QVM0Wn5j-53" value="-" style="rounded=1;whiteSpace=wrap;html=1;shadow=0;glass=0;sketch=0;fontFamily=Times New Roman;fontSize=16;strokeWidth=2;fillColor=#f8cecc;strokeColor=#b85450;fontStyle=1" vertex="1" parent="1">
          <mxGeometry x="1120" y="305" width="30" height="30" as="geometry" />
        </mxCell>
        <mxCell id="5Z1uy8fRGyx_QVM0Wn5j-54" value="-" style="rounded=1;whiteSpace=wrap;html=1;shadow=0;glass=0;sketch=0;fontFamily=Times New Roman;fontSize=16;strokeWidth=2;fillColor=#f8cecc;strokeColor=#b85450;fontStyle=1" vertex="1" parent="1">
          <mxGeometry x="1160" y="305" width="30" height="30" as="geometry" />
        </mxCell>
        <mxCell id="5Z1uy8fRGyx_QVM0Wn5j-55" value="-" style="rounded=1;whiteSpace=wrap;html=1;shadow=0;glass=0;sketch=0;fontFamily=Times New Roman;fontSize=16;strokeWidth=2;fillColor=#d5e8d4;strokeColor=#82b366;fontStyle=1" vertex="1" parent="1">
          <mxGeometry x="1200" y="305" width="30" height="30" as="geometry" />
        </mxCell>
        <mxCell id="5Z1uy8fRGyx_QVM0Wn5j-56" value="-" style="rounded=1;whiteSpace=wrap;html=1;shadow=0;glass=0;sketch=0;fontFamily=Times New Roman;fontSize=16;strokeWidth=2;fillColor=#d5e8d4;strokeColor=#82b366;fontStyle=1" vertex="1" parent="1">
          <mxGeometry x="1240" y="305" width="30" height="30" as="geometry" />
        </mxCell>
        <mxCell id="5Z1uy8fRGyx_QVM0Wn5j-57" value="-" style="rounded=1;whiteSpace=wrap;html=1;shadow=0;glass=0;sketch=0;fontFamily=Times New Roman;fontSize=16;strokeWidth=2;fillColor=#f8cecc;strokeColor=#b85450;fontStyle=1" vertex="1" parent="1">
          <mxGeometry x="960" y="305" width="30" height="30" as="geometry" />
        </mxCell>
        <mxCell id="5Z1uy8fRGyx_QVM0Wn5j-58" value="-" style="rounded=1;whiteSpace=wrap;html=1;shadow=0;glass=0;sketch=0;fontFamily=Times New Roman;fontSize=16;strokeWidth=2;fillColor=#f8cecc;strokeColor=#b85450;fontStyle=1" vertex="1" parent="1">
          <mxGeometry x="1000" y="305" width="30" height="30" as="geometry" />
        </mxCell>
        <mxCell id="5Z1uy8fRGyx_QVM0Wn5j-59" value="-" style="rounded=1;whiteSpace=wrap;html=1;shadow=0;glass=0;sketch=0;fontFamily=Times New Roman;fontSize=16;strokeWidth=2;fillColor=#f8cecc;strokeColor=#b85450;fontStyle=1" vertex="1" parent="1">
          <mxGeometry x="1040" y="305" width="30" height="30" as="geometry" />
        </mxCell>
        <mxCell id="5Z1uy8fRGyx_QVM0Wn5j-60" value="-" style="rounded=1;whiteSpace=wrap;html=1;shadow=0;glass=0;sketch=0;fontFamily=Times New Roman;fontSize=16;strokeWidth=2;fillColor=#f8cecc;strokeColor=#b85450;fontStyle=1" vertex="1" parent="1">
          <mxGeometry x="1080" y="305" width="30" height="30" as="geometry" />
        </mxCell>
        <mxCell id="5Z1uy8fRGyx_QVM0Wn5j-61" value="-" style="rounded=1;whiteSpace=wrap;html=1;shadow=0;glass=0;sketch=0;fontFamily=Times New Roman;fontSize=16;strokeWidth=2;fillColor=#d5e8d4;strokeColor=#82b366;fontStyle=1" vertex="1" parent="1">
          <mxGeometry x="1280" y="305" width="30" height="30" as="geometry" />
        </mxCell>
        <mxCell id="5Z1uy8fRGyx_QVM0Wn5j-65" value="x1" style="rounded=1;whiteSpace=wrap;html=1;shadow=0;glass=0;sketch=0;fontFamily=Times New Roman;fontSize=16;strokeWidth=2;fillColor=#f8cecc;strokeColor=#b85450;fontStyle=1" vertex="1" parent="1">
          <mxGeometry x="960" y="345" width="30" height="30" as="geometry" />
        </mxCell>
        <mxCell id="5Z1uy8fRGyx_QVM0Wn5j-66" value="x1" style="rounded=1;whiteSpace=wrap;html=1;shadow=0;glass=0;sketch=0;fontFamily=Times New Roman;fontSize=16;strokeWidth=2;fillColor=#f8cecc;strokeColor=#b85450;fontStyle=1" vertex="1" parent="1">
          <mxGeometry x="1000" y="345" width="30" height="30" as="geometry" />
        </mxCell>
        <mxCell id="5Z1uy8fRGyx_QVM0Wn5j-67" value="x1" style="rounded=1;whiteSpace=wrap;html=1;shadow=0;glass=0;sketch=0;fontFamily=Times New Roman;fontSize=16;strokeWidth=2;fillColor=#f8cecc;strokeColor=#b85450;fontStyle=1" vertex="1" parent="1">
          <mxGeometry x="1040" y="345" width="30" height="30" as="geometry" />
        </mxCell>
        <mxCell id="5Z1uy8fRGyx_QVM0Wn5j-68" value="x1" style="rounded=1;whiteSpace=wrap;html=1;shadow=0;glass=0;sketch=0;fontFamily=Times New Roman;fontSize=16;strokeWidth=2;fillColor=#f8cecc;strokeColor=#b85450;fontStyle=1" vertex="1" parent="1">
          <mxGeometry x="1080" y="345" width="30" height="30" as="geometry" />
        </mxCell>
        <mxCell id="5Z1uy8fRGyx_QVM0Wn5j-69" value="-" style="rounded=1;whiteSpace=wrap;html=1;shadow=0;glass=0;sketch=0;fontFamily=Times New Roman;fontSize=16;strokeWidth=2;fillColor=#f8cecc;strokeColor=#b85450;fontStyle=1" vertex="1" parent="1">
          <mxGeometry x="1120" y="345" width="30" height="30" as="geometry" />
        </mxCell>
        <mxCell id="5Z1uy8fRGyx_QVM0Wn5j-70" value="-" style="rounded=1;whiteSpace=wrap;html=1;shadow=0;glass=0;sketch=0;fontFamily=Times New Roman;fontSize=16;strokeWidth=2;fillColor=#f8cecc;strokeColor=#b85450;fontStyle=1" vertex="1" parent="1">
          <mxGeometry x="1160" y="345" width="30" height="30" as="geometry" />
        </mxCell>
        <mxCell id="5Z1uy8fRGyx_QVM0Wn5j-71" value="-" style="rounded=1;whiteSpace=wrap;html=1;shadow=0;glass=0;sketch=0;fontFamily=Times New Roman;fontSize=16;strokeWidth=2;fillColor=#d5e8d4;strokeColor=#82b366;fontStyle=1" vertex="1" parent="1">
          <mxGeometry x="1200" y="345" width="30" height="30" as="geometry" />
        </mxCell>
        <mxCell id="5Z1uy8fRGyx_QVM0Wn5j-72" value="-" style="rounded=1;whiteSpace=wrap;html=1;shadow=0;glass=0;sketch=0;fontFamily=Times New Roman;fontSize=16;strokeWidth=2;fillColor=#d5e8d4;strokeColor=#82b366;fontStyle=1" vertex="1" parent="1">
          <mxGeometry x="1240" y="345" width="30" height="30" as="geometry" />
        </mxCell>
        <mxCell id="5Z1uy8fRGyx_QVM0Wn5j-73" value="-" style="rounded=1;whiteSpace=wrap;html=1;shadow=0;glass=0;sketch=0;fontFamily=Times New Roman;fontSize=16;strokeWidth=2;fillColor=#f8cecc;strokeColor=#b85450;fontStyle=1" vertex="1" parent="1">
          <mxGeometry x="960" y="345" width="30" height="30" as="geometry" />
        </mxCell>
        <mxCell id="5Z1uy8fRGyx_QVM0Wn5j-74" value="-" style="rounded=1;whiteSpace=wrap;html=1;shadow=0;glass=0;sketch=0;fontFamily=Times New Roman;fontSize=16;strokeWidth=2;fillColor=#f8cecc;strokeColor=#b85450;fontStyle=1" vertex="1" parent="1">
          <mxGeometry x="1000" y="345" width="30" height="30" as="geometry" />
        </mxCell>
        <mxCell id="5Z1uy8fRGyx_QVM0Wn5j-75" value="-" style="rounded=1;whiteSpace=wrap;html=1;shadow=0;glass=0;sketch=0;fontFamily=Times New Roman;fontSize=16;strokeWidth=2;fillColor=#f8cecc;strokeColor=#b85450;fontStyle=1" vertex="1" parent="1">
          <mxGeometry x="1040" y="345" width="30" height="30" as="geometry" />
        </mxCell>
        <mxCell id="5Z1uy8fRGyx_QVM0Wn5j-76" value="-" style="rounded=1;whiteSpace=wrap;html=1;shadow=0;glass=0;sketch=0;fontFamily=Times New Roman;fontSize=16;strokeWidth=2;fillColor=#f8cecc;strokeColor=#b85450;fontStyle=1" vertex="1" parent="1">
          <mxGeometry x="1080" y="345" width="30" height="30" as="geometry" />
        </mxCell>
        <mxCell id="5Z1uy8fRGyx_QVM0Wn5j-77" value="-" style="rounded=1;whiteSpace=wrap;html=1;shadow=0;glass=0;sketch=0;fontFamily=Times New Roman;fontSize=16;strokeWidth=2;fillColor=#d5e8d4;strokeColor=#82b366;fontStyle=1" vertex="1" parent="1">
          <mxGeometry x="1280" y="345" width="30" height="30" as="geometry" />
        </mxCell>
        <mxCell id="5Z1uy8fRGyx_QVM0Wn5j-81" value="x1" style="rounded=1;whiteSpace=wrap;html=1;shadow=0;glass=0;sketch=0;fontFamily=Times New Roman;fontSize=16;strokeWidth=2;fillColor=#f8cecc;strokeColor=#b85450;fontStyle=1" vertex="1" parent="1">
          <mxGeometry x="960" y="385" width="30" height="30" as="geometry" />
        </mxCell>
        <mxCell id="5Z1uy8fRGyx_QVM0Wn5j-82" value="x1" style="rounded=1;whiteSpace=wrap;html=1;shadow=0;glass=0;sketch=0;fontFamily=Times New Roman;fontSize=16;strokeWidth=2;fillColor=#f8cecc;strokeColor=#b85450;fontStyle=1" vertex="1" parent="1">
          <mxGeometry x="1000" y="385" width="30" height="30" as="geometry" />
        </mxCell>
        <mxCell id="5Z1uy8fRGyx_QVM0Wn5j-83" value="x1" style="rounded=1;whiteSpace=wrap;html=1;shadow=0;glass=0;sketch=0;fontFamily=Times New Roman;fontSize=16;strokeWidth=2;fillColor=#f8cecc;strokeColor=#b85450;fontStyle=1" vertex="1" parent="1">
          <mxGeometry x="1040" y="385" width="30" height="30" as="geometry" />
        </mxCell>
        <mxCell id="5Z1uy8fRGyx_QVM0Wn5j-84" value="x1" style="rounded=1;whiteSpace=wrap;html=1;shadow=0;glass=0;sketch=0;fontFamily=Times New Roman;fontSize=16;strokeWidth=2;fillColor=#f8cecc;strokeColor=#b85450;fontStyle=1" vertex="1" parent="1">
          <mxGeometry x="1080" y="385" width="30" height="30" as="geometry" />
        </mxCell>
        <mxCell id="5Z1uy8fRGyx_QVM0Wn5j-85" value="-" style="rounded=1;whiteSpace=wrap;html=1;shadow=0;glass=0;sketch=0;fontFamily=Times New Roman;fontSize=16;strokeWidth=2;fillColor=#f8cecc;strokeColor=#b85450;fontStyle=1" vertex="1" parent="1">
          <mxGeometry x="1120" y="385" width="30" height="30" as="geometry" />
        </mxCell>
        <mxCell id="5Z1uy8fRGyx_QVM0Wn5j-86" value="-" style="rounded=1;whiteSpace=wrap;html=1;shadow=0;glass=0;sketch=0;fontFamily=Times New Roman;fontSize=16;strokeWidth=2;fillColor=#f8cecc;strokeColor=#b85450;fontStyle=1" vertex="1" parent="1">
          <mxGeometry x="1160" y="385" width="30" height="30" as="geometry" />
        </mxCell>
        <mxCell id="5Z1uy8fRGyx_QVM0Wn5j-87" value="-" style="rounded=1;whiteSpace=wrap;html=1;shadow=0;glass=0;sketch=0;fontFamily=Times New Roman;fontSize=16;strokeWidth=2;fillColor=#d5e8d4;strokeColor=#82b366;fontStyle=1" vertex="1" parent="1">
          <mxGeometry x="1200" y="385" width="30" height="30" as="geometry" />
        </mxCell>
        <mxCell id="5Z1uy8fRGyx_QVM0Wn5j-88" value="-" style="rounded=1;whiteSpace=wrap;html=1;shadow=0;glass=0;sketch=0;fontFamily=Times New Roman;fontSize=16;strokeWidth=2;fillColor=#d5e8d4;strokeColor=#82b366;fontStyle=1" vertex="1" parent="1">
          <mxGeometry x="1240" y="385" width="30" height="30" as="geometry" />
        </mxCell>
        <mxCell id="5Z1uy8fRGyx_QVM0Wn5j-89" value="-" style="rounded=1;whiteSpace=wrap;html=1;shadow=0;glass=0;sketch=0;fontFamily=Times New Roman;fontSize=16;strokeWidth=2;fillColor=#f8cecc;strokeColor=#b85450;fontStyle=1" vertex="1" parent="1">
          <mxGeometry x="960" y="385" width="30" height="30" as="geometry" />
        </mxCell>
        <mxCell id="5Z1uy8fRGyx_QVM0Wn5j-90" value="-" style="rounded=1;whiteSpace=wrap;html=1;shadow=0;glass=0;sketch=0;fontFamily=Times New Roman;fontSize=16;strokeWidth=2;fillColor=#f8cecc;strokeColor=#b85450;fontStyle=1" vertex="1" parent="1">
          <mxGeometry x="1000" y="385" width="30" height="30" as="geometry" />
        </mxCell>
        <mxCell id="5Z1uy8fRGyx_QVM0Wn5j-91" value="-" style="rounded=1;whiteSpace=wrap;html=1;shadow=0;glass=0;sketch=0;fontFamily=Times New Roman;fontSize=16;strokeWidth=2;fillColor=#f8cecc;strokeColor=#b85450;fontStyle=1" vertex="1" parent="1">
          <mxGeometry x="1040" y="385" width="30" height="30" as="geometry" />
        </mxCell>
        <mxCell id="5Z1uy8fRGyx_QVM0Wn5j-92" value="-" style="rounded=1;whiteSpace=wrap;html=1;shadow=0;glass=0;sketch=0;fontFamily=Times New Roman;fontSize=16;strokeWidth=2;fillColor=#f8cecc;strokeColor=#b85450;fontStyle=1" vertex="1" parent="1">
          <mxGeometry x="1080" y="385" width="30" height="30" as="geometry" />
        </mxCell>
        <mxCell id="5Z1uy8fRGyx_QVM0Wn5j-93" value="-" style="rounded=1;whiteSpace=wrap;html=1;shadow=0;glass=0;sketch=0;fontFamily=Times New Roman;fontSize=16;strokeWidth=2;fillColor=#d5e8d4;strokeColor=#82b366;fontStyle=1" vertex="1" parent="1">
          <mxGeometry x="1280" y="385" width="30" height="30" as="geometry" />
        </mxCell>
        <mxCell id="5Z1uy8fRGyx_QVM0Wn5j-97" value="x1" style="rounded=1;whiteSpace=wrap;html=1;shadow=0;glass=0;sketch=0;fontFamily=Times New Roman;fontSize=16;strokeWidth=2;fillColor=#f8cecc;strokeColor=#b85450;fontStyle=1" vertex="1" parent="1">
          <mxGeometry x="960" y="425" width="30" height="30" as="geometry" />
        </mxCell>
        <mxCell id="5Z1uy8fRGyx_QVM0Wn5j-98" value="x1" style="rounded=1;whiteSpace=wrap;html=1;shadow=0;glass=0;sketch=0;fontFamily=Times New Roman;fontSize=16;strokeWidth=2;fillColor=#f8cecc;strokeColor=#b85450;fontStyle=1" vertex="1" parent="1">
          <mxGeometry x="1000" y="425" width="30" height="30" as="geometry" />
        </mxCell>
        <mxCell id="5Z1uy8fRGyx_QVM0Wn5j-99" value="x1" style="rounded=1;whiteSpace=wrap;html=1;shadow=0;glass=0;sketch=0;fontFamily=Times New Roman;fontSize=16;strokeWidth=2;fillColor=#f8cecc;strokeColor=#b85450;fontStyle=1" vertex="1" parent="1">
          <mxGeometry x="1040" y="425" width="30" height="30" as="geometry" />
        </mxCell>
        <mxCell id="5Z1uy8fRGyx_QVM0Wn5j-100" value="x1" style="rounded=1;whiteSpace=wrap;html=1;shadow=0;glass=0;sketch=0;fontFamily=Times New Roman;fontSize=16;strokeWidth=2;fillColor=#f8cecc;strokeColor=#b85450;fontStyle=1" vertex="1" parent="1">
          <mxGeometry x="1080" y="425" width="30" height="30" as="geometry" />
        </mxCell>
        <mxCell id="5Z1uy8fRGyx_QVM0Wn5j-101" value="-" style="rounded=1;whiteSpace=wrap;html=1;shadow=0;glass=0;sketch=0;fontFamily=Times New Roman;fontSize=16;strokeWidth=2;fillColor=#f8cecc;strokeColor=#b85450;fontStyle=1" vertex="1" parent="1">
          <mxGeometry x="1120" y="425" width="30" height="30" as="geometry" />
        </mxCell>
        <mxCell id="5Z1uy8fRGyx_QVM0Wn5j-102" value="-" style="rounded=1;whiteSpace=wrap;html=1;shadow=0;glass=0;sketch=0;fontFamily=Times New Roman;fontSize=16;strokeWidth=2;fillColor=#f8cecc;strokeColor=#b85450;fontStyle=1" vertex="1" parent="1">
          <mxGeometry x="1160" y="425" width="30" height="30" as="geometry" />
        </mxCell>
        <mxCell id="5Z1uy8fRGyx_QVM0Wn5j-103" value="-" style="rounded=1;whiteSpace=wrap;html=1;shadow=0;glass=0;sketch=0;fontFamily=Times New Roman;fontSize=16;strokeWidth=2;fillColor=#d5e8d4;strokeColor=#82b366;fontStyle=1" vertex="1" parent="1">
          <mxGeometry x="1200" y="425" width="30" height="30" as="geometry" />
        </mxCell>
        <mxCell id="5Z1uy8fRGyx_QVM0Wn5j-104" value="-" style="rounded=1;whiteSpace=wrap;html=1;shadow=0;glass=0;sketch=0;fontFamily=Times New Roman;fontSize=16;strokeWidth=2;fillColor=#d5e8d4;strokeColor=#82b366;fontStyle=1" vertex="1" parent="1">
          <mxGeometry x="1240" y="425" width="30" height="30" as="geometry" />
        </mxCell>
        <mxCell id="5Z1uy8fRGyx_QVM0Wn5j-105" value="-" style="rounded=1;whiteSpace=wrap;html=1;shadow=0;glass=0;sketch=0;fontFamily=Times New Roman;fontSize=16;strokeWidth=2;fillColor=#f8cecc;strokeColor=#b85450;fontStyle=1" vertex="1" parent="1">
          <mxGeometry x="960" y="425" width="30" height="30" as="geometry" />
        </mxCell>
        <mxCell id="5Z1uy8fRGyx_QVM0Wn5j-106" value="1" style="rounded=1;whiteSpace=wrap;html=1;shadow=0;glass=0;sketch=0;fontFamily=Times New Roman;fontSize=16;strokeWidth=2;fillColor=#f8cecc;strokeColor=#b85450;fontStyle=1" vertex="1" parent="1">
          <mxGeometry x="1000" y="425" width="30" height="30" as="geometry" />
        </mxCell>
        <mxCell id="5Z1uy8fRGyx_QVM0Wn5j-107" value="-" style="rounded=1;whiteSpace=wrap;html=1;shadow=0;glass=0;sketch=0;fontFamily=Times New Roman;fontSize=16;strokeWidth=2;fillColor=#f8cecc;strokeColor=#b85450;fontStyle=1" vertex="1" parent="1">
          <mxGeometry x="1040" y="425" width="30" height="30" as="geometry" />
        </mxCell>
        <mxCell id="5Z1uy8fRGyx_QVM0Wn5j-108" value="-" style="rounded=1;whiteSpace=wrap;html=1;shadow=0;glass=0;sketch=0;fontFamily=Times New Roman;fontSize=16;strokeWidth=2;fillColor=#f8cecc;strokeColor=#b85450;fontStyle=1" vertex="1" parent="1">
          <mxGeometry x="1080" y="425" width="30" height="30" as="geometry" />
        </mxCell>
        <mxCell id="5Z1uy8fRGyx_QVM0Wn5j-109" value="-" style="rounded=1;whiteSpace=wrap;html=1;shadow=0;glass=0;sketch=0;fontFamily=Times New Roman;fontSize=16;strokeWidth=2;fillColor=#d5e8d4;strokeColor=#82b366;fontStyle=1" vertex="1" parent="1">
          <mxGeometry x="1280" y="425" width="30" height="30" as="geometry" />
        </mxCell>
        <mxCell id="5Z1uy8fRGyx_QVM0Wn5j-113" value="x1" style="rounded=1;whiteSpace=wrap;html=1;shadow=0;glass=0;sketch=0;fontFamily=Times New Roman;fontSize=16;strokeWidth=2;fillColor=#dae8fc;strokeColor=#6c8ebf;fontStyle=1" vertex="1" parent="1">
          <mxGeometry x="960" y="465" width="30" height="30" as="geometry" />
        </mxCell>
        <mxCell id="5Z1uy8fRGyx_QVM0Wn5j-114" value="x1" style="rounded=1;whiteSpace=wrap;html=1;shadow=0;glass=0;sketch=0;fontFamily=Times New Roman;fontSize=16;strokeWidth=2;fillColor=#dae8fc;strokeColor=#6c8ebf;fontStyle=1" vertex="1" parent="1">
          <mxGeometry x="1000" y="465" width="30" height="30" as="geometry" />
        </mxCell>
        <mxCell id="5Z1uy8fRGyx_QVM0Wn5j-115" value="x1" style="rounded=1;whiteSpace=wrap;html=1;shadow=0;glass=0;sketch=0;fontFamily=Times New Roman;fontSize=16;strokeWidth=2;fillColor=#dae8fc;strokeColor=#6c8ebf;fontStyle=1" vertex="1" parent="1">
          <mxGeometry x="1040" y="465" width="30" height="30" as="geometry" />
        </mxCell>
        <mxCell id="5Z1uy8fRGyx_QVM0Wn5j-116" value="x1" style="rounded=1;whiteSpace=wrap;html=1;shadow=0;glass=0;sketch=0;fontFamily=Times New Roman;fontSize=16;strokeWidth=2;fillColor=#dae8fc;strokeColor=#6c8ebf;fontStyle=1" vertex="1" parent="1">
          <mxGeometry x="1080" y="465" width="30" height="30" as="geometry" />
        </mxCell>
        <mxCell id="5Z1uy8fRGyx_QVM0Wn5j-117" value="-" style="rounded=1;whiteSpace=wrap;html=1;shadow=0;glass=0;sketch=0;fontFamily=Times New Roman;fontSize=16;strokeWidth=2;fillColor=#dae8fc;strokeColor=#6c8ebf;fontStyle=1" vertex="1" parent="1">
          <mxGeometry x="1120" y="465" width="30" height="30" as="geometry" />
        </mxCell>
        <mxCell id="5Z1uy8fRGyx_QVM0Wn5j-118" value="1" style="rounded=1;whiteSpace=wrap;html=1;shadow=0;glass=0;sketch=0;fontFamily=Times New Roman;fontSize=16;strokeWidth=2;fillColor=#dae8fc;strokeColor=#6c8ebf;fontStyle=1" vertex="1" parent="1">
          <mxGeometry x="1160" y="465" width="30" height="30" as="geometry" />
        </mxCell>
        <mxCell id="5Z1uy8fRGyx_QVM0Wn5j-119" value="-" style="rounded=1;whiteSpace=wrap;html=1;shadow=0;glass=0;sketch=0;fontFamily=Times New Roman;fontSize=16;strokeWidth=2;fillColor=#f5f5f5;strokeColor=#666666;fontColor=#333333;fontStyle=1" vertex="1" parent="1">
          <mxGeometry x="1200" y="465" width="30" height="30" as="geometry" />
        </mxCell>
        <mxCell id="5Z1uy8fRGyx_QVM0Wn5j-120" value="-" style="rounded=1;whiteSpace=wrap;html=1;shadow=0;glass=0;sketch=0;fontFamily=Times New Roman;fontSize=16;strokeWidth=2;fillColor=#f5f5f5;strokeColor=#666666;fontColor=#333333;fontStyle=1" vertex="1" parent="1">
          <mxGeometry x="1240" y="465" width="30" height="30" as="geometry" />
        </mxCell>
        <mxCell id="5Z1uy8fRGyx_QVM0Wn5j-121" value="-" style="rounded=1;whiteSpace=wrap;html=1;shadow=0;glass=0;sketch=0;fontFamily=Times New Roman;fontSize=16;strokeWidth=2;fillColor=#dae8fc;strokeColor=#6c8ebf;fontStyle=1" vertex="1" parent="1">
          <mxGeometry x="960" y="465" width="30" height="30" as="geometry" />
        </mxCell>
        <mxCell id="5Z1uy8fRGyx_QVM0Wn5j-122" value="-" style="rounded=1;whiteSpace=wrap;html=1;shadow=0;glass=0;sketch=0;fontFamily=Times New Roman;fontSize=16;strokeWidth=2;fillColor=#dae8fc;strokeColor=#6c8ebf;fontStyle=1" vertex="1" parent="1">
          <mxGeometry x="1000" y="465" width="30" height="30" as="geometry" />
        </mxCell>
        <mxCell id="5Z1uy8fRGyx_QVM0Wn5j-123" value="-" style="rounded=1;whiteSpace=wrap;html=1;shadow=0;glass=0;sketch=0;fontFamily=Times New Roman;fontSize=16;strokeWidth=2;fillColor=#dae8fc;strokeColor=#6c8ebf;fontStyle=1" vertex="1" parent="1">
          <mxGeometry x="1040" y="465" width="30" height="30" as="geometry" />
        </mxCell>
        <mxCell id="5Z1uy8fRGyx_QVM0Wn5j-124" value="-" style="rounded=1;whiteSpace=wrap;html=1;shadow=0;glass=0;sketch=0;fontFamily=Times New Roman;fontSize=16;strokeWidth=2;fillColor=#dae8fc;strokeColor=#6c8ebf;fontStyle=1" vertex="1" parent="1">
          <mxGeometry x="1080" y="465" width="30" height="30" as="geometry" />
        </mxCell>
        <mxCell id="5Z1uy8fRGyx_QVM0Wn5j-125" value="-" style="rounded=1;whiteSpace=wrap;html=1;shadow=0;glass=0;sketch=0;fontFamily=Times New Roman;fontSize=16;strokeWidth=2;fillColor=#f5f5f5;strokeColor=#666666;fontColor=#333333;fontStyle=1" vertex="1" parent="1">
          <mxGeometry x="1280" y="465" width="30" height="30" as="geometry" />
        </mxCell>
        <mxCell id="5Z1uy8fRGyx_QVM0Wn5j-129" value="x1" style="rounded=1;whiteSpace=wrap;html=1;shadow=0;glass=0;sketch=0;fontFamily=Times New Roman;fontSize=16;strokeWidth=2;fillColor=#dae8fc;strokeColor=#6c8ebf;fontStyle=1" vertex="1" parent="1">
          <mxGeometry x="960" y="505" width="30" height="30" as="geometry" />
        </mxCell>
        <mxCell id="5Z1uy8fRGyx_QVM0Wn5j-130" value="x1" style="rounded=1;whiteSpace=wrap;html=1;shadow=0;glass=0;sketch=0;fontFamily=Times New Roman;fontSize=16;strokeWidth=2;fillColor=#dae8fc;strokeColor=#6c8ebf;fontStyle=1" vertex="1" parent="1">
          <mxGeometry x="1000" y="505" width="30" height="30" as="geometry" />
        </mxCell>
        <mxCell id="5Z1uy8fRGyx_QVM0Wn5j-131" value="x1" style="rounded=1;whiteSpace=wrap;html=1;shadow=0;glass=0;sketch=0;fontFamily=Times New Roman;fontSize=16;strokeWidth=2;fillColor=#dae8fc;strokeColor=#6c8ebf;fontStyle=1" vertex="1" parent="1">
          <mxGeometry x="1040" y="505" width="30" height="30" as="geometry" />
        </mxCell>
        <mxCell id="5Z1uy8fRGyx_QVM0Wn5j-132" value="x1" style="rounded=1;whiteSpace=wrap;html=1;shadow=0;glass=0;sketch=0;fontFamily=Times New Roman;fontSize=16;strokeWidth=2;fillColor=#dae8fc;strokeColor=#6c8ebf;fontStyle=1" vertex="1" parent="1">
          <mxGeometry x="1080" y="505" width="30" height="30" as="geometry" />
        </mxCell>
        <mxCell id="5Z1uy8fRGyx_QVM0Wn5j-133" value="-" style="rounded=1;whiteSpace=wrap;html=1;shadow=0;glass=0;sketch=0;fontFamily=Times New Roman;fontSize=16;strokeWidth=2;fillColor=#dae8fc;strokeColor=#6c8ebf;fontStyle=1" vertex="1" parent="1">
          <mxGeometry x="1120" y="505" width="30" height="30" as="geometry" />
        </mxCell>
        <mxCell id="5Z1uy8fRGyx_QVM0Wn5j-134" value="-" style="rounded=1;whiteSpace=wrap;html=1;shadow=0;glass=0;sketch=0;fontFamily=Times New Roman;fontSize=16;strokeWidth=2;fillColor=#dae8fc;strokeColor=#6c8ebf;fontStyle=1" vertex="1" parent="1">
          <mxGeometry x="1160" y="505" width="30" height="30" as="geometry" />
        </mxCell>
        <mxCell id="5Z1uy8fRGyx_QVM0Wn5j-135" value="-" style="rounded=1;whiteSpace=wrap;html=1;shadow=0;glass=0;sketch=0;fontFamily=Times New Roman;fontSize=16;strokeWidth=2;fillColor=#f5f5f5;strokeColor=#666666;fontColor=#333333;fontStyle=1" vertex="1" parent="1">
          <mxGeometry x="1200" y="505" width="30" height="30" as="geometry" />
        </mxCell>
        <mxCell id="5Z1uy8fRGyx_QVM0Wn5j-136" value="-" style="rounded=1;whiteSpace=wrap;html=1;shadow=0;glass=0;sketch=0;fontFamily=Times New Roman;fontSize=16;strokeWidth=2;fillColor=#f5f5f5;strokeColor=#666666;fontColor=#333333;fontStyle=1" vertex="1" parent="1">
          <mxGeometry x="1240" y="505" width="30" height="30" as="geometry" />
        </mxCell>
        <mxCell id="5Z1uy8fRGyx_QVM0Wn5j-137" value="-" style="rounded=1;whiteSpace=wrap;html=1;shadow=0;glass=0;sketch=0;fontFamily=Times New Roman;fontSize=16;strokeWidth=2;fillColor=#dae8fc;strokeColor=#6c8ebf;fontStyle=1" vertex="1" parent="1">
          <mxGeometry x="960" y="505" width="30" height="30" as="geometry" />
        </mxCell>
        <mxCell id="5Z1uy8fRGyx_QVM0Wn5j-138" value="-" style="rounded=1;whiteSpace=wrap;html=1;shadow=0;glass=0;sketch=0;fontFamily=Times New Roman;fontSize=16;strokeWidth=2;fillColor=#dae8fc;strokeColor=#6c8ebf;fontStyle=1" vertex="1" parent="1">
          <mxGeometry x="1000" y="505" width="30" height="30" as="geometry" />
        </mxCell>
        <mxCell id="5Z1uy8fRGyx_QVM0Wn5j-139" value="-" style="rounded=1;whiteSpace=wrap;html=1;shadow=0;glass=0;sketch=0;fontFamily=Times New Roman;fontSize=16;strokeWidth=2;fillColor=#dae8fc;strokeColor=#6c8ebf;fontStyle=1" vertex="1" parent="1">
          <mxGeometry x="1040" y="505" width="30" height="30" as="geometry" />
        </mxCell>
        <mxCell id="5Z1uy8fRGyx_QVM0Wn5j-140" value="-" style="rounded=1;whiteSpace=wrap;html=1;shadow=0;glass=0;sketch=0;fontFamily=Times New Roman;fontSize=16;strokeWidth=2;fillColor=#dae8fc;strokeColor=#6c8ebf;fontStyle=1" vertex="1" parent="1">
          <mxGeometry x="1080" y="505" width="30" height="30" as="geometry" />
        </mxCell>
        <mxCell id="5Z1uy8fRGyx_QVM0Wn5j-141" value="-" style="rounded=1;whiteSpace=wrap;html=1;shadow=0;glass=0;sketch=0;fontFamily=Times New Roman;fontSize=16;strokeWidth=2;fillColor=#f5f5f5;strokeColor=#666666;fontColor=#333333;fontStyle=1" vertex="1" parent="1">
          <mxGeometry x="1280" y="505" width="30" height="30" as="geometry" />
        </mxCell>
        <mxCell id="5Z1uy8fRGyx_QVM0Wn5j-145" value="x1" style="rounded=1;whiteSpace=wrap;html=1;shadow=0;glass=0;sketch=0;fontFamily=Times New Roman;fontSize=16;strokeWidth=2;fillColor=#dae8fc;strokeColor=#6c8ebf;fontStyle=1" vertex="1" parent="1">
          <mxGeometry x="960" y="545" width="30" height="30" as="geometry" />
        </mxCell>
        <mxCell id="5Z1uy8fRGyx_QVM0Wn5j-146" value="x1" style="rounded=1;whiteSpace=wrap;html=1;shadow=0;glass=0;sketch=0;fontFamily=Times New Roman;fontSize=16;strokeWidth=2;fillColor=#dae8fc;strokeColor=#6c8ebf;fontStyle=1" vertex="1" parent="1">
          <mxGeometry x="1000" y="545" width="30" height="30" as="geometry" />
        </mxCell>
        <mxCell id="5Z1uy8fRGyx_QVM0Wn5j-147" value="x1" style="rounded=1;whiteSpace=wrap;html=1;shadow=0;glass=0;sketch=0;fontFamily=Times New Roman;fontSize=16;strokeWidth=2;fillColor=#dae8fc;strokeColor=#6c8ebf;fontStyle=1" vertex="1" parent="1">
          <mxGeometry x="1040" y="545" width="30" height="30" as="geometry" />
        </mxCell>
        <mxCell id="5Z1uy8fRGyx_QVM0Wn5j-148" value="x1" style="rounded=1;whiteSpace=wrap;html=1;shadow=0;glass=0;sketch=0;fontFamily=Times New Roman;fontSize=16;strokeWidth=2;fillColor=#dae8fc;strokeColor=#6c8ebf;fontStyle=1" vertex="1" parent="1">
          <mxGeometry x="1080" y="545" width="30" height="30" as="geometry" />
        </mxCell>
        <mxCell id="5Z1uy8fRGyx_QVM0Wn5j-149" value="-" style="rounded=1;whiteSpace=wrap;html=1;shadow=0;glass=0;sketch=0;fontFamily=Times New Roman;fontSize=16;strokeWidth=2;fillColor=#dae8fc;strokeColor=#6c8ebf;fontStyle=1" vertex="1" parent="1">
          <mxGeometry x="1120" y="545" width="30" height="30" as="geometry" />
        </mxCell>
        <mxCell id="5Z1uy8fRGyx_QVM0Wn5j-150" value="-" style="rounded=1;whiteSpace=wrap;html=1;shadow=0;glass=0;sketch=0;fontFamily=Times New Roman;fontSize=16;strokeWidth=2;fillColor=#dae8fc;strokeColor=#6c8ebf;fontStyle=1" vertex="1" parent="1">
          <mxGeometry x="1160" y="545" width="30" height="30" as="geometry" />
        </mxCell>
        <mxCell id="5Z1uy8fRGyx_QVM0Wn5j-151" value="-" style="rounded=1;whiteSpace=wrap;html=1;shadow=0;glass=0;sketch=0;fontFamily=Times New Roman;fontSize=16;strokeWidth=2;fillColor=#f5f5f5;strokeColor=#666666;fontColor=#333333;fontStyle=1" vertex="1" parent="1">
          <mxGeometry x="1200" y="545" width="30" height="30" as="geometry" />
        </mxCell>
        <mxCell id="5Z1uy8fRGyx_QVM0Wn5j-152" value="-" style="rounded=1;whiteSpace=wrap;html=1;shadow=0;glass=0;sketch=0;fontFamily=Times New Roman;fontSize=16;strokeWidth=2;fillColor=#f5f5f5;strokeColor=#666666;fontColor=#333333;fontStyle=1" vertex="1" parent="1">
          <mxGeometry x="1240" y="545" width="30" height="30" as="geometry" />
        </mxCell>
        <mxCell id="5Z1uy8fRGyx_QVM0Wn5j-153" value="-" style="rounded=1;whiteSpace=wrap;html=1;shadow=0;glass=0;sketch=0;fontFamily=Times New Roman;fontSize=16;strokeWidth=2;fillColor=#dae8fc;strokeColor=#6c8ebf;fontStyle=1" vertex="1" parent="1">
          <mxGeometry x="960" y="545" width="30" height="30" as="geometry" />
        </mxCell>
        <mxCell id="5Z1uy8fRGyx_QVM0Wn5j-154" value="-" style="rounded=1;whiteSpace=wrap;html=1;shadow=0;glass=0;sketch=0;fontFamily=Times New Roman;fontSize=16;strokeWidth=2;fillColor=#dae8fc;strokeColor=#6c8ebf;fontStyle=1" vertex="1" parent="1">
          <mxGeometry x="1000" y="545" width="30" height="30" as="geometry" />
        </mxCell>
        <mxCell id="5Z1uy8fRGyx_QVM0Wn5j-155" value="-" style="rounded=1;whiteSpace=wrap;html=1;shadow=0;glass=0;sketch=0;fontFamily=Times New Roman;fontSize=16;strokeWidth=2;fillColor=#dae8fc;strokeColor=#6c8ebf;fontStyle=1" vertex="1" parent="1">
          <mxGeometry x="1040" y="545" width="30" height="30" as="geometry" />
        </mxCell>
        <mxCell id="5Z1uy8fRGyx_QVM0Wn5j-156" value="-" style="rounded=1;whiteSpace=wrap;html=1;shadow=0;glass=0;sketch=0;fontFamily=Times New Roman;fontSize=16;strokeWidth=2;fillColor=#dae8fc;strokeColor=#6c8ebf;fontStyle=1" vertex="1" parent="1">
          <mxGeometry x="1080" y="545" width="30" height="30" as="geometry" />
        </mxCell>
        <mxCell id="5Z1uy8fRGyx_QVM0Wn5j-157" value="-" style="rounded=1;whiteSpace=wrap;html=1;shadow=0;glass=0;sketch=0;fontFamily=Times New Roman;fontSize=16;strokeWidth=2;fillColor=#f5f5f5;strokeColor=#666666;fontColor=#333333;fontStyle=1" vertex="1" parent="1">
          <mxGeometry x="1280" y="545" width="30" height="30" as="geometry" />
        </mxCell>
        <mxCell id="5Z1uy8fRGyx_QVM0Wn5j-209" value="x1" style="rounded=1;whiteSpace=wrap;html=1;shadow=0;glass=0;sketch=0;fontFamily=Times New Roman;fontSize=16;strokeWidth=2;fontStyle=0" vertex="1" parent="1">
          <mxGeometry x="960" y="635" width="30" height="30" as="geometry" />
        </mxCell>
        <mxCell id="5Z1uy8fRGyx_QVM0Wn5j-210" value="x1" style="rounded=1;whiteSpace=wrap;html=1;shadow=0;glass=0;sketch=0;fontFamily=Times New Roman;fontSize=16;strokeWidth=2;fontStyle=0" vertex="1" parent="1">
          <mxGeometry x="1000" y="635" width="30" height="30" as="geometry" />
        </mxCell>
        <mxCell id="5Z1uy8fRGyx_QVM0Wn5j-211" value="x1" style="rounded=1;whiteSpace=wrap;html=1;shadow=0;glass=0;sketch=0;fontFamily=Times New Roman;fontSize=16;strokeWidth=2;fontStyle=0" vertex="1" parent="1">
          <mxGeometry x="1040" y="635" width="30" height="30" as="geometry" />
        </mxCell>
        <mxCell id="5Z1uy8fRGyx_QVM0Wn5j-212" value="x1" style="rounded=1;whiteSpace=wrap;html=1;shadow=0;glass=0;sketch=0;fontFamily=Times New Roman;fontSize=16;strokeWidth=2;fontStyle=0" vertex="1" parent="1">
          <mxGeometry x="1080" y="635" width="30" height="30" as="geometry" />
        </mxCell>
        <mxCell id="5Z1uy8fRGyx_QVM0Wn5j-242" style="edgeStyle=orthogonalEdgeStyle;rounded=0;orthogonalLoop=1;jettySize=auto;html=1;entryX=0.5;entryY=1;entryDx=0;entryDy=0;" edge="1" parent="1" source="5Z1uy8fRGyx_QVM0Wn5j-213" target="5Z1uy8fRGyx_QVM0Wn5j-149">
          <mxGeometry relative="1" as="geometry" />
        </mxCell>
        <mxCell id="5Z1uy8fRGyx_QVM0Wn5j-213" value="x5" style="rounded=1;whiteSpace=wrap;html=1;shadow=0;glass=0;sketch=0;fontFamily=Times New Roman;fontSize=16;strokeWidth=2;fontStyle=0" vertex="1" parent="1">
          <mxGeometry x="1120" y="635" width="30" height="30" as="geometry" />
        </mxCell>
        <mxCell id="5Z1uy8fRGyx_QVM0Wn5j-243" style="edgeStyle=orthogonalEdgeStyle;rounded=0;orthogonalLoop=1;jettySize=auto;html=1;entryX=0.5;entryY=1;entryDx=0;entryDy=0;" edge="1" parent="1" source="5Z1uy8fRGyx_QVM0Wn5j-214" target="5Z1uy8fRGyx_QVM0Wn5j-150">
          <mxGeometry relative="1" as="geometry" />
        </mxCell>
        <mxCell id="5Z1uy8fRGyx_QVM0Wn5j-214" value="x6" style="rounded=1;whiteSpace=wrap;html=1;shadow=0;glass=0;sketch=0;fontFamily=Times New Roman;fontSize=16;strokeWidth=2;fontStyle=0" vertex="1" parent="1">
          <mxGeometry x="1160" y="635" width="30" height="30" as="geometry" />
        </mxCell>
        <mxCell id="5Z1uy8fRGyx_QVM0Wn5j-244" style="edgeStyle=orthogonalEdgeStyle;rounded=0;orthogonalLoop=1;jettySize=auto;html=1;entryX=0.5;entryY=1;entryDx=0;entryDy=0;" edge="1" parent="1" source="5Z1uy8fRGyx_QVM0Wn5j-215" target="5Z1uy8fRGyx_QVM0Wn5j-151">
          <mxGeometry relative="1" as="geometry" />
        </mxCell>
        <mxCell id="5Z1uy8fRGyx_QVM0Wn5j-215" value="r1" style="rounded=1;whiteSpace=wrap;html=1;shadow=0;glass=0;sketch=0;fontFamily=Times New Roman;fontSize=16;strokeWidth=2;fontStyle=1" vertex="1" parent="1">
          <mxGeometry x="1200" y="635" width="30" height="30" as="geometry" />
        </mxCell>
        <mxCell id="5Z1uy8fRGyx_QVM0Wn5j-246" style="edgeStyle=orthogonalEdgeStyle;rounded=0;orthogonalLoop=1;jettySize=auto;html=1;entryX=0.5;entryY=1;entryDx=0;entryDy=0;" edge="1" parent="1" source="5Z1uy8fRGyx_QVM0Wn5j-216" target="5Z1uy8fRGyx_QVM0Wn5j-152">
          <mxGeometry relative="1" as="geometry" />
        </mxCell>
        <mxCell id="5Z1uy8fRGyx_QVM0Wn5j-216" value="r2" style="rounded=1;whiteSpace=wrap;html=1;shadow=0;glass=0;sketch=0;fontFamily=Times New Roman;fontSize=16;strokeWidth=2;fontStyle=1" vertex="1" parent="1">
          <mxGeometry x="1240" y="635" width="30" height="30" as="geometry" />
        </mxCell>
        <mxCell id="5Z1uy8fRGyx_QVM0Wn5j-236" style="edgeStyle=orthogonalEdgeStyle;rounded=0;orthogonalLoop=1;jettySize=auto;html=1;entryX=0.5;entryY=1;entryDx=0;entryDy=0;" edge="1" parent="1" source="5Z1uy8fRGyx_QVM0Wn5j-217" target="5Z1uy8fRGyx_QVM0Wn5j-153">
          <mxGeometry relative="1" as="geometry" />
        </mxCell>
        <mxCell id="5Z1uy8fRGyx_QVM0Wn5j-217" value="x1" style="rounded=1;whiteSpace=wrap;html=1;shadow=0;glass=0;sketch=0;fontFamily=Times New Roman;fontSize=16;strokeWidth=2;fontStyle=0" vertex="1" parent="1">
          <mxGeometry x="960" y="635" width="30" height="30" as="geometry" />
        </mxCell>
        <mxCell id="5Z1uy8fRGyx_QVM0Wn5j-239" style="edgeStyle=orthogonalEdgeStyle;rounded=0;orthogonalLoop=1;jettySize=auto;html=1;entryX=0.5;entryY=1;entryDx=0;entryDy=0;" edge="1" parent="1" source="5Z1uy8fRGyx_QVM0Wn5j-218" target="5Z1uy8fRGyx_QVM0Wn5j-154">
          <mxGeometry relative="1" as="geometry" />
        </mxCell>
        <mxCell id="5Z1uy8fRGyx_QVM0Wn5j-218" value="x2" style="rounded=1;whiteSpace=wrap;html=1;shadow=0;glass=0;sketch=0;fontFamily=Times New Roman;fontSize=16;strokeWidth=2;fontStyle=0" vertex="1" parent="1">
          <mxGeometry x="1000" y="635" width="30" height="30" as="geometry" />
        </mxCell>
        <mxCell id="5Z1uy8fRGyx_QVM0Wn5j-240" style="edgeStyle=orthogonalEdgeStyle;rounded=0;orthogonalLoop=1;jettySize=auto;html=1;entryX=0.5;entryY=1;entryDx=0;entryDy=0;" edge="1" parent="1" source="5Z1uy8fRGyx_QVM0Wn5j-219" target="5Z1uy8fRGyx_QVM0Wn5j-155">
          <mxGeometry relative="1" as="geometry" />
        </mxCell>
        <mxCell id="5Z1uy8fRGyx_QVM0Wn5j-219" value="x3" style="rounded=1;whiteSpace=wrap;html=1;shadow=0;glass=0;sketch=0;fontFamily=Times New Roman;fontSize=16;strokeWidth=2;fontStyle=0" vertex="1" parent="1">
          <mxGeometry x="1040" y="635" width="30" height="30" as="geometry" />
        </mxCell>
        <mxCell id="5Z1uy8fRGyx_QVM0Wn5j-241" style="edgeStyle=orthogonalEdgeStyle;rounded=0;orthogonalLoop=1;jettySize=auto;html=1;entryX=0.5;entryY=1;entryDx=0;entryDy=0;" edge="1" parent="1" source="5Z1uy8fRGyx_QVM0Wn5j-220" target="5Z1uy8fRGyx_QVM0Wn5j-156">
          <mxGeometry relative="1" as="geometry" />
        </mxCell>
        <mxCell id="5Z1uy8fRGyx_QVM0Wn5j-220" value="x4" style="rounded=1;whiteSpace=wrap;html=1;shadow=0;glass=0;sketch=0;fontFamily=Times New Roman;fontSize=16;strokeWidth=2;fontStyle=0" vertex="1" parent="1">
          <mxGeometry x="1080" y="635" width="30" height="30" as="geometry" />
        </mxCell>
        <mxCell id="5Z1uy8fRGyx_QVM0Wn5j-247" style="edgeStyle=orthogonalEdgeStyle;rounded=0;orthogonalLoop=1;jettySize=auto;html=1;entryX=0.5;entryY=1;entryDx=0;entryDy=0;" edge="1" parent="1" source="5Z1uy8fRGyx_QVM0Wn5j-221" target="5Z1uy8fRGyx_QVM0Wn5j-157">
          <mxGeometry relative="1" as="geometry" />
        </mxCell>
        <mxCell id="5Z1uy8fRGyx_QVM0Wn5j-221" value="r3" style="rounded=1;whiteSpace=wrap;html=1;shadow=0;glass=0;sketch=0;fontFamily=Times New Roman;fontSize=16;strokeWidth=2;fontStyle=1" vertex="1" parent="1">
          <mxGeometry x="1280" y="635" width="30" height="30" as="geometry" />
        </mxCell>
        <mxCell id="5Z1uy8fRGyx_QVM0Wn5j-222" value="x1" style="rounded=1;whiteSpace=wrap;html=1;shadow=0;glass=0;sketch=0;fontFamily=Times New Roman;fontSize=16;strokeWidth=2;" vertex="1" parent="1">
          <mxGeometry x="900" y="225" width="30" height="30" as="geometry" />
        </mxCell>
        <mxCell id="5Z1uy8fRGyx_QVM0Wn5j-223" value="x2" style="rounded=1;whiteSpace=wrap;html=1;shadow=0;glass=0;sketch=0;fontFamily=Times New Roman;fontSize=16;strokeWidth=2;" vertex="1" parent="1">
          <mxGeometry x="900" y="265" width="30" height="30" as="geometry" />
        </mxCell>
        <mxCell id="5Z1uy8fRGyx_QVM0Wn5j-224" value="x3" style="rounded=1;whiteSpace=wrap;html=1;shadow=0;glass=0;sketch=0;fontFamily=Times New Roman;fontSize=16;strokeWidth=2;" vertex="1" parent="1">
          <mxGeometry x="900" y="305" width="30" height="30" as="geometry" />
        </mxCell>
        <mxCell id="5Z1uy8fRGyx_QVM0Wn5j-225" value="x4" style="rounded=1;whiteSpace=wrap;html=1;shadow=0;glass=0;sketch=0;fontFamily=Times New Roman;fontSize=16;strokeWidth=2;" vertex="1" parent="1">
          <mxGeometry x="900" y="345" width="30" height="30" as="geometry" />
        </mxCell>
        <mxCell id="5Z1uy8fRGyx_QVM0Wn5j-226" value="x5" style="rounded=1;whiteSpace=wrap;html=1;shadow=0;glass=0;sketch=0;fontFamily=Times New Roman;fontSize=16;strokeWidth=2;" vertex="1" parent="1">
          <mxGeometry x="900" y="385" width="30" height="30" as="geometry" />
        </mxCell>
        <mxCell id="5Z1uy8fRGyx_QVM0Wn5j-227" value="x6" style="rounded=1;whiteSpace=wrap;html=1;shadow=0;glass=0;sketch=0;fontFamily=Times New Roman;fontSize=16;strokeWidth=2;" vertex="1" parent="1">
          <mxGeometry x="900" y="425" width="30" height="30" as="geometry" />
        </mxCell>
        <mxCell id="5Z1uy8fRGyx_QVM0Wn5j-228" value="r1" style="rounded=1;whiteSpace=wrap;html=1;shadow=0;glass=0;sketch=0;fontFamily=Times New Roman;fontSize=16;strokeWidth=2;fontStyle=1" vertex="1" parent="1">
          <mxGeometry x="900" y="465" width="30" height="30" as="geometry" />
        </mxCell>
        <mxCell id="5Z1uy8fRGyx_QVM0Wn5j-229" value="r2" style="rounded=1;whiteSpace=wrap;html=1;shadow=0;glass=0;sketch=0;fontFamily=Times New Roman;fontSize=16;strokeWidth=2;fontStyle=1" vertex="1" parent="1">
          <mxGeometry x="900" y="505" width="30" height="30" as="geometry" />
        </mxCell>
        <mxCell id="5Z1uy8fRGyx_QVM0Wn5j-230" value="r3" style="rounded=1;whiteSpace=wrap;html=1;shadow=0;glass=0;sketch=0;fontFamily=Times New Roman;fontSize=16;strokeWidth=2;fontStyle=1" vertex="1" parent="1">
          <mxGeometry x="900" y="545" width="30" height="30" as="geometry" />
        </mxCell>
        <mxCell id="5Z1uy8fRGyx_QVM0Wn5j-233" value="&lt;b&gt;&lt;font face=&quot;Times New Roman&quot; style=&quot;font-size: 16px&quot;&gt;BERT&lt;/font&gt;&lt;/b&gt;" style="rounded=1;whiteSpace=wrap;html=1;fillColor=#fff2cc;strokeColor=#d6b656;" vertex="1" parent="1">
          <mxGeometry x="955" y="585" width="355" height="40" as="geometry" />
        </mxCell>
        <mxCell id="5Z1uy8fRGyx_QVM0Wn5j-252" value="(x2, x6)" style="text;html=1;align=center;verticalAlign=middle;resizable=0;points=[];autosize=1;strokeColor=none;fillColor=none;fontStyle=1;fontFamily=Times New Roman;fontSize=16;" vertex="1" parent="1">
          <mxGeometry x="1325" y="365" width="70" height="20" as="geometry" />
        </mxCell>
        <mxCell id="5Z1uy8fRGyx_QVM0Wn5j-263" style="edgeStyle=orthogonalEdgeStyle;rounded=0;orthogonalLoop=1;jettySize=auto;html=1;exitX=0.5;exitY=0;exitDx=0;exitDy=0;entryX=0;entryY=0.5;entryDx=0;entryDy=0;fontFamily=Times New Roman;fontSize=16;" edge="1" parent="1" source="5Z1uy8fRGyx_QVM0Wn5j-258" target="5Z1uy8fRGyx_QVM0Wn5j-260">
          <mxGeometry relative="1" as="geometry" />
        </mxCell>
        <mxCell id="5Z1uy8fRGyx_QVM0Wn5j-264" style="edgeStyle=orthogonalEdgeStyle;rounded=0;orthogonalLoop=1;jettySize=auto;html=1;exitX=1;exitY=0.5;exitDx=0;exitDy=0;entryX=0;entryY=0.5;entryDx=0;entryDy=0;fontFamily=Times New Roman;fontSize=16;" edge="1" parent="1" source="5Z1uy8fRGyx_QVM0Wn5j-258" target="5Z1uy8fRGyx_QVM0Wn5j-259">
          <mxGeometry relative="1" as="geometry" />
        </mxCell>
        <mxCell id="5Z1uy8fRGyx_QVM0Wn5j-265" style="edgeStyle=orthogonalEdgeStyle;rounded=0;orthogonalLoop=1;jettySize=auto;html=1;fontFamily=Times New Roman;fontSize=16;entryX=0.005;entryY=0.589;entryDx=0;entryDy=0;entryPerimeter=0;" edge="1" parent="1" source="5Z1uy8fRGyx_QVM0Wn5j-258" target="5Z1uy8fRGyx_QVM0Wn5j-261">
          <mxGeometry relative="1" as="geometry">
            <mxPoint x="505" y="565" as="targetPoint" />
            <Array as="points">
              <mxPoint x="510" y="548" />
            </Array>
          </mxGeometry>
        </mxCell>
        <mxCell id="5Z1uy8fRGyx_QVM0Wn5j-258" value="(头实体，关系，尾巴体)" style="ellipse;whiteSpace=wrap;html=1;rounded=1;fontFamily=Times New Roman;fontSize=16;fontStyle=1;fillColor=#dae8fc;strokeColor=#6c8ebf;" vertex="1" parent="1">
          <mxGeometry x="400" y="395" width="210" height="90" as="geometry" />
        </mxCell>
        <mxCell id="5Z1uy8fRGyx_QVM0Wn5j-259" value="(头实体，关系，尾实体)" style="ellipse;whiteSpace=wrap;html=1;rounded=1;fontFamily=Times New Roman;fontSize=16;fontStyle=1;fillColor=#dae8fc;strokeColor=#6c8ebf;" vertex="1" parent="1">
          <mxGeometry x="630" y="395" width="210" height="90" as="geometry" />
        </mxCell>
        <mxCell id="5Z1uy8fRGyx_QVM0Wn5j-260" value="(头实体，关系)" style="ellipse;whiteSpace=wrap;html=1;rounded=1;fontFamily=Times New Roman;fontSize=16;fontStyle=1;fillColor=#dae8fc;strokeColor=#6c8ebf;" vertex="1" parent="1">
          <mxGeometry x="630" y="295" width="210" height="90" as="geometry" />
        </mxCell>
        <mxCell id="5Z1uy8fRGyx_QVM0Wn5j-261" value="(头实体，关系，尾实体)" style="ellipse;whiteSpace=wrap;html=1;rounded=1;fontFamily=Times New Roman;fontSize=16;fontStyle=1;fillColor=#dae8fc;strokeColor=#6c8ebf;" vertex="1" parent="1">
          <mxGeometry x="630" y="495" width="210" height="90" as="geometry" />
        </mxCell>
      </root>
    </mxGraphModel>
  </diagram>
</mxfile>
